<svg width="201" height="40" viewBox="0 0 201 40" fill="none" xmlns="http://www.w3.org/2000/svg">
<path d="M30.1224 17.2103C28.9867 18.3455 28.4191 19.9245 28.5741 21.5176L28.5474 21.4912C28.7067 23.366 28.026 25.2153 26.6868 26.5457C25.3476 27.8761 23.4862 28.5524 21.599 28.3941L21.6257 28.4206C19.3407 28.2093 17.1678 29.444 16.1926 31.5078C15.2175 33.5715 15.6496 36.0211 17.273 37.6325C18.8965 39.2438 21.3626 39.6709 23.439 38.7003C25.5155 37.7297 26.7564 35.5698 26.5417 33.3L26.5698 33.3265C26.4105 31.4516 27.0912 29.6024 28.4304 28.272C29.7696 26.9415 31.631 26.2653 33.5182 26.4235L33.4901 26.3971C36.0013 26.6214 38.338 25.1002 39.1334 22.7233C39.9288 20.3463 38.9739 17.738 36.8273 16.4241C34.6807 15.1101 31.9063 15.4357 30.1269 17.2103H30.1224Z" fill="#5454D4"/>
<path d="M19.2025 24.9529L19.1744 24.9264C20.779 25.0871 22.3715 24.5233 23.5124 23.3908C24.6532 22.2582 25.2219 20.6766 25.0614 19.0823L25.0895 19.1088C24.9302 17.2339 25.611 15.3847 26.9501 14.0543C28.2893 12.7238 30.1508 12.0476 32.0379 12.2058L32.0098 12.1794C34.2949 12.3926 36.4692 11.1592 37.4458 9.0957C38.4224 7.03224 37.9916 4.58194 36.3687 2.96962C34.7457 1.35729 32.2793 0.929258 30.2022 1.89948C28.1252 2.8697 26.8837 5.02976 27.0983 7.29995L27.0716 7.27201C27.2315 9.14697 26.5509 10.9965 25.2116 12.3271C23.8723 13.6576 22.0105 14.3337 20.1232 14.1749L20.1499 14.2029C18.5452 14.0423 16.9527 14.606 15.8118 15.7385C14.671 16.8711 14.1023 18.4527 14.2628 20.047L14.2362 20.0205C14.395 21.8952 13.7141 23.7442 12.375 25.0745C11.0359 26.4048 9.17482 27.0812 7.28778 26.9235L7.31442 26.9499C5.02929 26.7368 2.855 27.9702 1.87839 30.0336C0.90178 32.0971 1.33263 34.5474 2.95557 36.1597C4.57852 37.772 7.04495 38.2001 9.122 37.2298C11.199 36.2596 12.4406 34.0995 12.226 31.8294L12.2541 31.8558C12.0948 29.981 12.7755 28.1317 14.1147 26.8013C15.4539 25.4709 17.3153 24.7946 19.2025 24.9529Z" fill="#FF7143"/>
<path d="M9.28171 22.0016C10.4177 20.8665 10.9848 19.2873 10.8286 17.6942L10.8567 17.7207C10.6973 15.8453 11.3784 13.9955 12.7183 12.665C14.0581 11.3344 15.9204 10.6586 17.8081 10.8178L17.78 10.7913C20.0643 11.0039 22.2375 9.7706 23.2135 7.7078C24.1896 5.64499 23.7587 3.19566 22.1364 1.58393C20.514 -0.0277992 18.0486 -0.455804 15.9722 0.513824C13.8958 1.48345 12.6544 3.64248 12.8684 5.91187L12.8418 5.8854C13.0011 7.76024 12.3203 9.60949 10.9812 10.9399C9.64198 12.2703 7.78054 12.9466 5.89336 12.7883L5.92001 12.8148C3.40888 12.5911 1.07266 14.1127 0.277732 16.4896C-0.517197 18.8666 0.437973 21.4746 2.58459 22.7882C4.73121 24.1019 7.50542 23.7762 9.28467 22.0016H9.28171Z" fill="#5454D4"/>
<path d="M55.1361 7.33398H59.5325V28.5884H55.1361V7.33398Z" fill="#19191B"/>
<path fill-rule="evenodd" clip-rule="evenodd" d="M66.7954 14.1595C63.8941 15.3635 62.0097 18.1866 62.0223 21.3103C62.0071 23.3585 62.8215 25.3268 64.2823 26.7723C65.7431 28.2177 67.7276 29.0189 69.7893 28.9956C72.9336 28.9955 75.7676 27.1122 76.968 24.2251C78.1683 21.3379 77.4981 18.0167 75.2703 15.8123C73.0425 13.6079 69.6967 12.9554 66.7954 14.1595ZM69.7268 18.0534C71.5768 18.0195 73.1087 19.4728 73.1599 21.3102C73.2098 22.2211 72.874 23.1112 72.2338 23.7652C71.5935 24.4191 70.7072 24.7772 69.7893 24.7529C67.939 24.753 66.4343 23.2719 66.4172 21.4339C66.4 19.5958 67.8769 18.0874 69.7268 18.0534Z" fill="#19191B"/>
<path fill-rule="evenodd" clip-rule="evenodd" d="M95.0783 27.8545V14.031L90.7989 14.0281V15.5133C89.7549 14.2443 88.1672 13.5421 86.5194 13.6207C82.4998 13.7466 79.3069 17.0203 79.3069 21.0156C79.3069 25.0109 82.4998 28.2845 86.5194 28.4104C88.1672 28.489 89.7549 27.7868 90.7989 26.5178V27.8486C90.8724 28.7267 90.5404 29.5905 89.8963 30.1963C89.2523 30.8021 88.366 31.0843 87.4875 30.9633C86.0978 31.1043 84.7661 30.3733 84.1465 29.1295L80.3955 31.2839C81.863 33.6593 84.5433 35.0214 87.3409 34.8133C91.2385 34.8133 95.0783 32.7457 95.0783 27.8545ZM88.7113 17.6533C90.0338 18.2458 90.8608 19.5777 90.8004 21.0177C90.8277 21.9476 90.458 22.8456 89.7827 23.4899C89.1073 24.1342 88.1892 24.4649 87.2551 24.4001C85.8043 24.4018 84.4982 23.527 83.9558 22.1903C83.4134 20.8535 83.7436 19.3234 84.79 18.325C85.8364 17.3267 87.3887 17.0608 88.7113 17.6533Z" fill="#19191B"/>
<path fill-rule="evenodd" clip-rule="evenodd" d="M102.341 14.1595C99.4399 15.3635 97.5555 18.1866 97.5681 21.3103C97.5528 23.3585 98.3673 25.3268 99.8281 26.7723C101.289 28.2177 103.273 29.0189 105.335 28.9956C108.479 28.9955 111.313 27.1122 112.514 24.2251C113.714 21.3379 113.044 18.0167 110.816 15.8123C108.588 13.6079 105.242 12.9554 102.341 14.1595ZM105.273 18.0534C107.123 18.0195 108.654 19.4728 108.706 21.3102C108.756 22.2211 108.42 23.1112 107.78 23.7652C107.139 24.4191 106.253 24.7772 105.335 24.7529C103.485 24.753 101.98 23.2719 101.963 21.4339C101.946 19.5958 103.423 18.0874 105.273 18.0534Z" fill="#19191B"/>
<path fill-rule="evenodd" clip-rule="evenodd" d="M116.781 7.70835C115.795 8.11396 115.152 9.06952 115.152 10.1295C115.167 11.5708 116.339 12.7357 117.79 12.75C118.857 12.75 119.819 12.1116 120.227 11.1323C120.635 10.1531 120.41 9.0259 119.655 8.27642C118.901 7.52694 117.766 7.30273 116.781 7.70835ZM119.994 14.0309H115.596L115.59 28.5897H119.994V14.0309Z" fill="#19191B"/>
<path fill-rule="evenodd" clip-rule="evenodd" d="M137.084 26.6C138.398 25.1575 139.08 23.2537 138.977 21.3104C139.081 19.3667 138.399 17.4623 137.085 16.0193C135.77 14.5764 133.93 13.7141 131.973 13.6236C130.323 13.5342 128.72 14.1859 127.607 15.3986V14.031H123.211V34.4118H127.607V27.2192C128.72 28.4328 130.323 29.0851 131.973 28.9957C133.929 28.9048 135.769 28.0426 137.084 26.6ZM131.036 17.9329C132.951 17.901 134.533 19.4087 134.581 21.3103C134.647 22.2554 134.304 23.1836 133.639 23.8619C132.973 24.5401 132.047 24.9039 131.095 24.8618C129.18 24.862 127.623 23.3285 127.607 21.4263C127.591 19.5241 129.122 17.9647 131.036 17.9329Z" fill="#19191B"/>
<path d="M152.544 24.2209C152.544 27.5694 149.614 28.9959 146.45 28.9959C143.833 29.2313 141.337 27.8586 140.148 25.5312L143.957 23.3767C144.274 24.4603 145.311 25.1761 146.444 25.0944C147.498 25.0944 148.026 24.7738 148.026 24.1929C148.026 22.59 140.816 23.4356 140.816 18.3988C140.816 15.2238 143.513 13.6238 146.561 13.6238C148.894 13.5504 151.083 14.7437 152.275 16.7385L148.524 18.7473C148.187 17.9677 147.414 17.4634 146.561 17.4665C145.798 17.4665 145.329 17.7606 145.329 18.2812C145.335 19.9415 152.544 18.8341 152.544 24.2209Z" fill="#19191B"/>
<path d="M168.603 14.031V28.5898H164.207V27.2207C163.178 28.4462 161.62 29.1069 160.018 28.9972C157.057 28.9972 154.541 26.9016 154.541 22.9678V14.031H158.937V22.3281C158.863 23.0299 159.103 23.7287 159.594 24.2386C160.085 24.7485 160.777 25.0179 161.486 24.9751C163.098 24.9751 164.211 24.0442 164.211 21.9766V14.0354L168.603 14.031Z" fill="#19191B"/>
<path d="M193.812 19.6501V28.5883H189.416V20.0281C189.416 18.5722 188.713 17.6413 187.307 17.6413C185.841 17.6413 185.02 18.6604 185.02 20.3781V28.5883H180.625V20.0281C180.625 18.5722 179.922 17.6413 178.514 17.6413C177.048 17.6413 176.228 18.6604 176.228 20.3781V28.5883H171.832V14.0295H176.228V15.3678C177.154 14.1614 178.633 13.5041 180.155 13.6222C181.686 13.5478 183.143 14.277 183.994 15.5428C184.984 14.2195 186.589 13.4942 188.244 13.6222C191.608 13.6236 193.812 16.0104 193.812 19.6501Z" fill="#19191B"/>
<path d="M197.531 13.9413C199.333 13.9413 200.793 12.4902 200.793 10.7002C200.793 8.91011 199.333 7.45898 197.531 7.45898C195.729 7.45898 194.268 8.91011 194.268 10.7002C194.268 12.4902 195.729 13.9413 197.531 13.9413Z" fill="#19191B"/>
</svg>
